<?xml version="1.0" encoding="iso-8859-1"?>
<!-- Uploaded to: SVG Repo, www.svgrepo.com, Generator: SVG Repo Mixer Tools -->
<!DOCTYPE svg PUBLIC "-//W3C//DTD SVG 1.1//EN" "http://www.w3.org/Graphics/SVG/1.1/DTD/svg11.dtd">
<svg fill="#000000" height="800px" width="800px" version="1.1" id="Capa_1" xmlns="http://www.w3.org/2000/svg" xmlns:xlink="http://www.w3.org/1999/xlink" 
	 viewBox="0 0 216.817 216.817" xml:space="preserve">
<path d="M135.797,78.481V66.493V25.538h3.713c2.762,0,5-2.239,5-5s-2.238-5-5-5h-3.713V5c0-2.761-2.238-5-5-5H86.02
	c-2.762,0-5,2.239-5,5v10.538h-3.713c-2.762,0-5,2.239-5,5s2.238,5,5,5h3.713v40.956v11.988
	c-28.009,10.446-47.903,36.398-47.903,66.704c0,39.498,33.775,71.631,75.292,71.631s75.292-32.134,75.292-71.631
	C183.7,114.879,163.806,88.928,135.797,78.481z M125.797,25.538v35.956H91.02V25.538H125.797z"/>
</svg>